<svg xmlns="http://www.w3.org/2000/svg" xmlns:xlink="http://www.w3.org/1999/xlink" version="1.1" width="1000" height="1000" viewBox="0 0 1000 1000" xml:space="preserve">
<desc>Created with Fabric.js 3.5.0</desc>
<defs>
</defs>
<rect x="0" y="0" width="100%" height="100%" fill="#ffffff"/>
<g transform="matrix(1.6378 0 0 1.6378 97.8641 97.8641)" id="699753">
<g style="" vector-effect="non-scaling-stroke">
		<g transform="matrix(0.1306 0 0 0.1306 -0.003 -0.003)" id="SVGRepo_iconCarrier">
<path style="stroke: none; stroke-width: 1; stroke-dasharray: none; stroke-linecap: butt; stroke-dashoffset: 0; stroke-linejoin: miter; stroke-miterlimit: 4; is-custom-font: none; font-file-url: none; fill: rgb(0,0,0); fill-rule: nonzero; opacity: 1;" transform=" translate(-245, -244.9995)" d="M 460 154.999 H 360 v -120 c 0 -16.542 -13.458 -30 -30 -30 H 30 c -16.542 0 -30 13.458 -30 30 v 190 c 0 16.542 13.458 30 30 30 h 5 v 65 c 0 4.107 2.512 7.797 6.333 9.303 c 1.191 0.47 2.433 0.697 3.665 0.697 c 2.719 0 5.384 -1.11 7.313 -3.177 l 67.035 -71.823 H 130 v 120 c 0 16.542 13.458 30 30 30 h 190 v 70 c 0 4.044 2.437 7.691 6.173 9.239 c 1.237 0.513 2.536 0.762 3.825 0.762 c 2.602 0 5.16 -1.017 7.073 -2.929 L 444.142 405 H 460 c 16.542 0 30 -13.458 30 -30 v -190 C 490 168.458 476.542 154.999 460 154.999 z M 130 184.999 v 50 h -15 c -2.772 0 -5.419 1.15 -7.311 3.177 L 55 294.63 v -49.63 c 0 -5.523 -4.477 -10 -10 -10 H 30 c -5.514 0 -10 -4.486 -10 -10 v -190 c 0 -5.514 4.486 -10 10 -10 h 300 c 5.514 0 10 4.486 10 10 v 120 H 160 C 143.458 154.999 130 168.458 130 184.999 z M 470 375 c 0 5.514 -4.486 10 -10 10 h -20 c -2.652 0 -5.196 1.054 -7.071 2.929 L 370 450.857 V 395 c 0 -5.523 -4.477 -10 -10 -10 H 160 c -5.514 0 -10 -4.486 -10 -10 v -190 c 0 -5.514 4.486 -10 10 -10 h 300 c 5.514 0 10 4.486 10 10 V 375 z" stroke-linecap="round"/>
</g>
		<g transform="matrix(0.1306 0 0 0.1306 -5.2257 -23.5105)" id="SVGRepo_iconCarrier">
<rect style="stroke: none; stroke-width: 1; stroke-dasharray: none; stroke-linecap: butt; stroke-dashoffset: 0; stroke-linejoin: miter; stroke-miterlimit: 4; is-custom-font: none; font-file-url: none; fill: rgb(0,0,0); fill-rule: nonzero; opacity: 1;" x="-95" y="-10" rx="0" ry="0" width="190" height="20"/>
</g>
		<g transform="matrix(0.1306 0 0 0.1306 -8.4913 -16.9799)" id="SVGRepo_iconCarrier">
<rect style="stroke: none; stroke-width: 1; stroke-dasharray: none; stroke-linecap: butt; stroke-dashoffset: 0; stroke-linejoin: miter; stroke-miterlimit: 4; is-custom-font: none; font-file-url: none; fill: rgb(0,0,0); fill-rule: nonzero; opacity: 1;" x="-120" y="-10" rx="0" ry="0" width="240" height="20"/>
</g>
		<g transform="matrix(0.1306 0 0 0.1306 -20.8983 -10.4492)" id="SVGRepo_iconCarrier">
<rect style="stroke: none; stroke-width: 1; stroke-dasharray: none; stroke-linecap: butt; stroke-dashoffset: 0; stroke-linejoin: miter; stroke-miterlimit: 4; is-custom-font: none; font-file-url: none; fill: rgb(0,0,0); fill-rule: nonzero; opacity: 1;" x="-25" y="-10" rx="0" ry="0" width="50" height="20"/>
</g>
		<g transform="matrix(0.1306 0 0 0.1306 -21.8778 -23.5105)" id="SVGRepo_iconCarrier">
<rect style="stroke: none; stroke-width: 1; stroke-dasharray: none; stroke-linecap: butt; stroke-dashoffset: 0; stroke-linejoin: miter; stroke-miterlimit: 4; is-custom-font: none; font-file-url: none; fill: rgb(0,0,0); fill-rule: nonzero; opacity: 1;" x="-17.5" y="-10" rx="0" ry="0" width="35" height="20"/>
</g>
		<g transform="matrix(0.1306 0 0 0.1306 8.4882 -1.9594)" id="SVGRepo_iconCarrier">
<rect style="stroke: none; stroke-width: 1; stroke-dasharray: none; stroke-linecap: butt; stroke-dashoffset: 0; stroke-linejoin: miter; stroke-miterlimit: 4; is-custom-font: none; font-file-url: none; fill: rgb(0,0,0); fill-rule: nonzero; opacity: 1;" x="-130" y="-10" rx="0" ry="0" width="260" height="20"/>
</g>
		<g transform="matrix(0.1306 0 0 0.1306 8.4882 4.5713)" id="SVGRepo_iconCarrier">
<rect style="stroke: none; stroke-width: 1; stroke-dasharray: none; stroke-linecap: butt; stroke-dashoffset: 0; stroke-linejoin: miter; stroke-miterlimit: 4; is-custom-font: none; font-file-url: none; fill: rgb(0,0,0); fill-rule: nonzero; opacity: 1;" x="-130" y="-10" rx="0" ry="0" width="260" height="20"/>
</g>
		<g transform="matrix(0.1306 0 0 0.1306 3.9172 11.1019)" id="SVGRepo_iconCarrier">
<rect style="stroke: none; stroke-width: 1; stroke-dasharray: none; stroke-linecap: butt; stroke-dashoffset: 0; stroke-linejoin: miter; stroke-miterlimit: 4; is-custom-font: none; font-file-url: none; fill: rgb(0,0,0); fill-rule: nonzero; opacity: 1;" x="-95" y="-10" rx="0" ry="0" width="190" height="20"/>
</g>
		<g transform="matrix(0.1306 0 0 0.1306 22.2038 11.1019)" id="SVGRepo_iconCarrier">
<rect style="stroke: none; stroke-width: 1; stroke-dasharray: none; stroke-linecap: butt; stroke-dashoffset: 0; stroke-linejoin: miter; stroke-miterlimit: 4; is-custom-font: none; font-file-url: none; fill: rgb(0,0,0); fill-rule: nonzero; opacity: 1;" x="-25" y="-10" rx="0" ry="0" width="50" height="20"/>
</g>
</g>
</g>
</svg>